# xmcd
#
# Track frame offsets:
#	150
#	14870
#	28635
#	42820
#	57607
#	72485
#	85957
#	99522
#	113082
#	125792
#	139617
#	152777
#	166307
#	180990
#	194520
#	209092
#	218960
#	233512
#	245682
#	259527
#
# Disc length: 3629 seconds
#
# Revision: 4
# Processed by: cddbd v1.4PL0 Copyright (c) Steve Scherf et al.
# Submitted via: MusicWizard 6.0.2
#
DISCID=290e2b14
DTITLE=Woody Herman - Blues On Parade
DYEAR=1991
DGENRE=Swing
TTITLE0=Woodchopper's Ball
TTITLE1=Blues On Parade
TTITLE2=Blues On Parade (2)
TTITLE3=Blue Prelude
TTITLE4=Blue Flame
TTITLE5=Doctor Jazz
TTITLE6=River Red Blues
TTITLE7=Dallas Blues
TTITLE8=Blues Downstairs
TTITLE9=Farewell Blues
TTITLE10=Get Your Boots Laced, Papa 1
TTITLE11=Get Your Boots Laces, Papa 2
TTITLE12=Chip's Blues
TTITLE13=Fan It
TTITLE14=Everything Happens To Me
TTITLE15=Woodsheddin' With Woody
TTITLE16=Blues In The Night
TTITLE17=Yardbird Shuffle
TTITLE18=Las Chiapanecas
TTITLE19=Down Under
EXTD=YEAR: 1991 ID3G:   0
EXTT0=
EXTT1=
EXTT2=
EXTT3=
EXTT4=
EXTT5=
EXTT6=
EXTT7=
EXTT8=
EXTT9=
EXTT10=
EXTT11=
EXTT12=
EXTT13=
EXTT14=
EXTT15=
EXTT16=
EXTT17=
EXTT18=
EXTT19=
PLAYORDER=
